The Dark Knight Rises 2012 hindi cam rip FkThe Dark Knight Rises 2012 Hindi cam rip Fk.avi
Format                                   : AVI
Format/Info                              : Audio Video Interleave
File size                                : 667 MiB
Duration                                 : 2h 30mn
Overall bit rate                         : 620 Kbps
Writing application                      : Lavf52.39.0

Video
ID                                       : 0
Format                                   : xvid
Codec ID                                 : xvid
Duration                                 : 2h 30mn
Bit rate                                 : 512 Kbps
Width                                    : 480 pixels
Height                                   : 272 pixels
Display aspect ratio                     : 16:9
Frame rate                               : 23.976 fps
Bits/(Pixel*Frame)                       : 0.163
Stream size                              : 551 MiB (83%)

Audio
ID                                       : 1
Format                                   : MPEG Audio
Format version                           : Version 1
Format profile                           : Layer 3
Mode                                     : Joint stereo
Mode extension                           : MS Stereo
Codec ID                                 : 55
Codec ID/Hint                            : MP3
Duration                                 : 2h 30mn
Bit rate mode                            : Constant
Bit rate                                 : 96.0 Kbps
Channel(s)                               : 2 channels
Sampling rate                            : 44.1 KHz
Compression mode                         : Lossy
Stream size                              : 103 MiB (15%)
Alignment                                : Aligned on interleaves
Interleave, duration                     : 26 ms (0.63 video frame)



SCREENSHOTS ARE ADDED IN TORRENT, DOWNLOAD THEM FOR CHECKING QUALITY